<svg xmlns:xlink="http://www.w3.org/1999/xlink" width="339" xmlns="http://www.w3.org/2000/svg" height="457" id="screenshot-aca395d8-558b-80d3-8001-7e25be88f383" viewBox="-2 -2 339 457" style="-webkit-print-color-adjust: exact;" fill="none" version="1.1"><g id="shape-aca395d8-558b-80d3-8001-7e25be88f383" rx="0" ry="0"><g id="shape-aca395d8-558b-80d3-8001-7e255c02f072"><g id="fills-aca395d8-558b-80d3-8001-7e255c02f072"><rect rx="10" ry="10" x="0" y="218" transform="" width="100" height="100" style="fill: rgb(191, 19, 99); fill-opacity: 1;"/></g><g id="strokes-aca395d8-558b-80d3-8001-7e255c02f072"><g class="stroke-shape"><rect rx="10" ry="10" x="0" y="218" transform="" width="100" height="100" style="fill: none; stroke-width: 4; stroke: rgb(229, 229, 229); stroke-opacity: 1;"/></g></g></g><g id="shape-aca395d8-558b-80d3-8001-7e258f31a4d2"><g id="fills-aca395d8-558b-80d3-8001-7e258f31a4d2"><rect rx="10" ry="10" x="115" y="353" transform="" width="100" height="100" style="fill: rgb(191, 19, 99); fill-opacity: 1;"/></g><g id="strokes-aca395d8-558b-80d3-8001-7e258f31a4d2"><g class="stroke-shape"><rect rx="10" ry="10" x="115" y="353" transform="" width="100" height="100" style="fill: none; stroke-width: 4; stroke: rgb(229, 229, 229); stroke-opacity: 1;"/></g></g></g><g id="shape-aca395d8-558b-80d3-8001-7e2596c4b842"><g id="fills-aca395d8-558b-80d3-8001-7e2596c4b842"><rect rx="10" ry="10" x="235" y="353" transform="" width="100" height="100" style="fill: rgb(191, 19, 99); fill-opacity: 1;"/></g><g id="strokes-aca395d8-558b-80d3-8001-7e2596c4b842"><g class="stroke-shape"><rect rx="10" ry="10" x="235" y="353" transform="" width="100" height="100" style="fill: none; stroke-width: 4; stroke: rgb(229, 229, 229); stroke-opacity: 1;"/></g></g></g><g id="shape-aca395d8-558b-80d3-8001-7e2583054f20"><g id="fills-aca395d8-558b-80d3-8001-7e2583054f20"><rect rx="10" ry="10" x="0" y="100" transform="" width="100" height="100" style="fill: rgb(191, 19, 99); fill-opacity: 1;"/></g><g id="strokes-aca395d8-558b-80d3-8001-7e2583054f20"><g class="stroke-shape"><rect rx="10" ry="10" x="0" y="100" transform="" width="100" height="100" style="fill: none; stroke-width: 4; stroke: rgb(229, 229, 229); stroke-opacity: 1;"/></g></g></g><g id="shape-aca395d8-558b-80d3-8001-7e25879bd61a"><g id="fills-aca395d8-558b-80d3-8001-7e25879bd61a"><rect rx="10" ry="10" x="115" y="0" transform="" width="100" height="100" style="fill: rgb(191, 19, 99); fill-opacity: 1;"/></g><g id="strokes-aca395d8-558b-80d3-8001-7e25879bd61a"><g class="stroke-shape"><rect rx="10" ry="10" x="115" y="0" transform="" width="100" height="100" style="fill: none; stroke-width: 4; stroke: rgb(229, 229, 229); stroke-opacity: 1;"/></g></g></g><g id="shape-aca395d8-558b-80d3-8001-7e258b59e233"><g id="fills-aca395d8-558b-80d3-8001-7e258b59e233"><rect rx="10" ry="10" x="235" y="0" transform="" width="100" height="100" style="fill: rgb(191, 19, 99); fill-opacity: 1;"/></g><g id="strokes-aca395d8-558b-80d3-8001-7e258b59e233"><g class="stroke-shape"><rect rx="10" ry="10" x="235" y="0" transform="" width="100" height="100" style="fill: none; stroke-width: 4; stroke: rgb(229, 229, 229); stroke-opacity: 1;"/></g></g></g><g id="shape-aca395d8-558b-80d3-8001-7e25696f1601"><g id="fills-aca395d8-558b-80d3-8001-7e25696f1601"><rect rx="10" ry="10" x="165" y="218" transform="matrix(1,0,0,1,0.000004,-0.000003)" width="47" height="100" style="fill: rgb(191, 19, 99); fill-opacity: 1;"/></g><g id="strokes-aca395d8-558b-80d3-8001-7e25696f1601"><g class="stroke-shape"><rect rx="10" ry="10" x="165" y="218" transform="matrix(1,0,0,1,0.000004,-0.000003)" width="47" height="100" style="fill: none; stroke-width: 4; stroke: rgb(229, 229, 229); stroke-opacity: 1;"/></g></g></g><g id="shape-aca395d8-558b-80d3-8001-7e256d18c69b"><g id="fills-aca395d8-558b-80d3-8001-7e256d18c69b"><rect rx="10" ry="10" x="235" y="218" transform="" width="100" height="100" style="fill: rgb(191, 19, 99); fill-opacity: 1;"/></g><g id="strokes-aca395d8-558b-80d3-8001-7e256d18c69b"><g class="stroke-shape"><rect rx="10" ry="10" x="235" y="218" transform="" width="100" height="100" style="fill: none; stroke-width: 4; stroke: rgb(229, 229, 229); stroke-opacity: 1;"/></g></g></g></g></svg>